<svg xmlns="http://www.w3.org/2000/svg" height="64" width="64" viewBox="0 0 261.21 299.96">
    <polygon fill="#fff" fill-rule="evenodd" points="130.59 0 0 75 0.02 224.98 130.62 299.96 130.62 261.77 33.21 205.88 33.19 202.15 33.19 94.1 130.59 38.19 130.59 0 130.59 0" />
    <path fill="#c7c9d6" d="M130.62,300l26.21-15v-38.2l-26.21,15.06V300Zm0-261.77,26.24,15.06V15.07L130.59,0V38.19Zm86.19,212.29L261.21,225l0-150L216.78,49.46V87.62L228,94.07l0,3.74V205.86l-11.24,6.46v38.16Z" />
    <polygon fill="#5077FE" points="55.67 88.83 55.67 211.13 93.14 232.63 93.14 67.33 55.67 88.83 55.67 88.83" />
    <polygon fill="#5077FE" points="168.07 22.43 168.07 277.53 205.54 256.03 205.54 43.93 168.07 22.43 168.07 22.43" />
    <polygon fill="#5077FE" points="92.14 131.35 130.61 131.35 130.61 168.61 92.14 168.61 92.14 131.35 92.14 131.35" />
    <polygon fill="#5077FE" points="129.61 131.35 169.07 131.35 169.07 168.61 129.61 168.61 129.61 131.35 129.61 131.35" />
</svg>